<svg width="1600" height="900" viewBox="0 0 1600 900" fill="none" xmlns="http://www.w3.org/2000/svg">
  <rect width="1600" height="900" fill="#05070B"/>
  <g fill="#1A202C" stroke="#313A49" stroke-width="2">
    <path d="M118 252L145 220L198 198L260 186L336 195L376 220L401 254L398 289L360 304L335 326L311 378L267 426L214 431L184 409L168 370L146 338L112 321L96 286L118 252Z"/>
    <path d="M352 451L386 428L431 435L465 469L473 519L456 582L431 644L420 710L397 782L365 785L341 734L329 662L315 596L319 524L352 451Z"/>
    <path d="M685 208L760 190L842 190L910 200L970 193L1047 207L1121 233L1174 252L1221 286L1262 313L1318 329L1379 364L1389 403L1364 434L1304 431L1243 417L1184 431L1152 467L1121 520L1092 565L1043 591L1006 585L976 553L951 507L923 471L880 457L846 416L821 368L779 343L724 337L684 303L676 254L685 208Z"/>
    <path d="M893 503L942 481L992 487L1037 526L1071 594L1080 665L1047 735L1002 774L955 768L927 726L904 657L883 607L879 551L893 503Z"/>
    <path d="M1261 647L1307 624L1363 632L1427 674L1460 736L1443 798L1398 832L1339 828L1293 799L1248 740L1241 686L1261 647Z"/>
    <path d="M1358 312L1391 299L1433 312L1471 348L1478 391L1447 417L1410 411L1372 386L1354 347L1358 312Z"/>
    <path d="M1440 450L1464 441L1495 451L1512 478L1505 507L1481 526L1456 519L1437 491L1440 450Z"/>
    <path d="M361 183L383 163L417 164L436 186L427 213L395 220L365 209L361 183Z"/>
    <path d="M625 223L653 211L671 225L666 249L641 256L625 243L625 223Z"/>
    <path d="M700 190L719 177L739 187L739 206L719 214L700 205L700 190Z"/>
    <path d="M772 169L789 156L810 165L812 185L793 196L774 189L772 169Z"/>
    <path d="M814 230L843 222L873 236L875 262L851 277L822 274L809 254L814 230Z"/>
  </g>
  <g opacity="0.15" stroke="#94A3B8" stroke-width="1">
    <path d="M0 240H1600"/>
    <path d="M0 450H1600"/>
    <path d="M0 660H1600"/>
    <path d="M266 0V900"/>
    <path d="M533 0V900"/>
    <path d="M800 0V900"/>
    <path d="M1066 0V900"/>
    <path d="M1333 0V900"/>
  </g>
</svg>
